<?xml version="1.0" encoding="UTF-8"?>
<svg id="_Слой_1" data-name="Слой 1" xmlns="http://www.w3.org/2000/svg" xmlns:xlink="http://www.w3.org/1999/xlink" viewBox="0 0 99.43 99.43">
  <defs>
    <radialGradient id="GradientFill_1" data-name="GradientFill 1" cx="27.84" cy="24.63" fx="27.84" fy="24.63" r="103.54" gradientUnits="userSpaceOnUse">
      <stop offset="0" stop-color="#fff"/>
      <stop offset=".2" stop-color="#ffd864"/>
      <stop offset=".52" stop-color="#ffcb00"/>
      <stop offset=".64" stop-color="#ea980d"/>
      <stop offset=".75" stop-color="#e07029"/>
      <stop offset=".84" stop-color="#f29123"/>
      <stop offset="1" stop-color="#f29123"/>
    </radialGradient>
    <radialGradient id="GradientFill_2" data-name="GradientFill 2" cx="32.64" cy="20.29" fx="32.64" fy="20.29" r="62.87" gradientUnits="userSpaceOnUse">
      <stop offset="0" stop-color="#fff6b1"/>
      <stop offset=".26" stop-color="#f8b34e"/>
      <stop offset=".41" stop-color="#ee7c00"/>
      <stop offset=".57" stop-color="#ed7900"/>
      <stop offset=".85" stop-color="#d64a08"/>
      <stop offset="1" stop-color="#d64808"/>
    </radialGradient>
    <radialGradient id="GradientFill_3" data-name="GradientFill 3" cx="32.74" cy="25.8" fx="32.74" fy="25.8" r="72.6" gradientUnits="userSpaceOnUse">
      <stop offset="0" stop-color="#d8d9d9"/>
      <stop offset=".24" stop-color="#383837"/>
      <stop offset="1" stop-color="#1a1a18"/>
    </radialGradient>
  </defs>
  <path d="m80.32,10.54c11.63,9.1,19.11,23.27,19.11,39.18,0,27.45-22.26,49.71-49.71,49.71S0,77.17,0,49.71C0,33.71,7.57,19.48,19.31,10.38l.02,61.77c0,4.42,4.02,8.49,7.87,8.49h45.24c3.85,0,7.87-4.06,7.87-8.49l.02-61.6h-.01Z" fill="url(#GradientFill_1)" fill-rule="evenodd"/>
  <path d="m53.35.14c6.94.51,13.49,2.44,19.35,5.51-.28-.15-.56-.29-.84-.43v66.88h-18.23V.16l-.28-.02h0Zm-25.66,4.98C33.26,2.36,39.41.63,45.92.14v71.97h-18.23V5.12Z" fill="url(#GradientFill_2)" fill-rule="evenodd"/>
  <path d="m49.72,0c1.33,0,2.66.05,3.96.16v11.34c5.4-3.33,11.57-5.53,18.19-6.29l.04.02.03.02.06.03h0s.03.02.03.02h0s.03.02.03.02l.03.02.03.02c2.9,1.47,5.64,3.22,8.19,5.2l-.02,61.6c0,4.42-4.02,8.49-7.87,8.49H27.21c-3.85,0-7.87-4.06-7.87-8.49l-.02-61.77c2.61-2.02,5.43-3.79,8.42-5.27v.11c6.64.79,12.83,3.03,18.23,6.39V.14c1.24-.09,2.49-.14,3.75-.14h0Zm3.96,13.42v7.86c5.41-3.43,11.59-5.75,18.23-6.64V6.58c-6.65.87-12.89,3.34-18.23,6.84h0Zm0,9.78v7.86c5.41-3.54,11.59-5.97,18.23-6.98v-8.06c-6.65,1-12.89,3.58-18.23,7.18h0Zm0,9.78v7.86c5.41-3.64,11.59-6.19,18.23-7.33v-8.06c-6.65,1.13-12.89,3.82-18.23,7.53h0Zm0,9.78v7.86c5.41-3.74,11.59-6.41,18.23-7.67v-8.06c-6.65,1.25-12.89,4.07-18.23,7.87h0Zm0,9.78v7.86c5.41-3.84,11.59-6.63,18.23-8.02v-8.06c-6.65,1.38-12.89,4.31-18.23,8.22h0Zm0,9.78v7.86c5.41-3.95,11.59-6.85,18.23-8.36v-8.06c-6.65,1.5-12.89,4.55-18.23,8.56h0Zm0,9.78h18.23v-8.91c-6.65,1.63-12.89,4.8-18.23,8.91h0ZM27.74,6.6v8.06c6.64.92,12.83,3.27,18.23,6.74v-7.85c-5.33-3.54-11.57-6.03-18.23-6.94h0Zm0,9.44v8.06c6.64,1.04,12.83,3.51,18.23,7.08v-7.85c-5.33-3.64-11.57-6.25-18.23-7.29h0Zm0,9.44v8.06c6.64,1.17,12.83,3.75,18.23,7.42v-7.85c-5.33-3.74-11.57-6.47-18.23-7.63h0Zm0,9.44v8.06c6.64,1.29,12.83,4,18.23,7.77v-7.85c-5.33-3.84-11.57-6.69-18.23-7.97h0Zm0,9.44v8.06c6.64,1.42,12.83,4.24,18.23,8.11v-7.85c-5.33-3.94-11.57-6.91-18.23-8.32h0Zm0,9.44v8.06c6.64,1.54,12.83,4.48,18.23,8.46v-7.85c-5.33-4.04-11.57-7.13-18.23-8.66h0Zm0,9.44v8.86h18.04c-5.29-4.07-11.46-7.22-18.04-8.86Z" fill="url(#GradientFill_3)" fill-rule="evenodd"/>
</svg>