<?xml version="1.0" encoding="UTF-8"?>
<svg id="_Слой_1" data-name="Слой 1" xmlns="http://www.w3.org/2000/svg" viewBox="0 0 335 108.57">
  <path d="m8.86,87.28l10.83,6.92s2.21-5.65,10.53-3.97c8.31,1.68,42.25,4.31,42.25,4.31,0,0,12.22,3.43,17.88-.54,5.65-3.97,130.94-3.79,130.94-3.79l18.02,4.53s5.9-2.05,10.07-2.21c4.17-.16,39.97-.94,39.97-.94l6.3-1.1,14.89-13.15-29.91-40.74-219.51,7.97-44.64,12.62-7.62,30.08Z" fill="#050505"/>
  <path d="m320.43,81.31h12.82s1.7-.09,1.41,3.14c-.29,3.23-2.95,2.8-2.95,2.8h-12.39l1.11-5.95Z" fill="#2d2d2b"/>
  <path d="m34.15,42.42l-5.97-.77s-9.99,1.57-15.61,6.4c-5.62,4.83-7.98,14.27-7.64,15.62.34,1.35,18.55-5.84,18.99-6.46.45-.62,10.23-14.78,10.23-14.78Z" fill="#c5d6e2"/>
  <path d="m87.56,33.24s2.42-1.36,4.17-1.94c1.75-.58,7.86-1.45,7.47-.97-.39.48-2.81,1.55-2.33,2.91.49,1.36-9.31,0-9.31,0Z" fill="#5c5f66"/>
  <path d="m94.25,33.34s40.07-22.47,53.65-27.22l5.21.26-30.16,16.58-18.91,12.51-9.79-2.13Z" fill="#2d2d2b"/>
  <path d="m318.06,31.85s4.83-1.46,5.62,1.8c.79,3.26.79,6.41,2.13,9.78,1.35,3.37,2.25,5.39,1.12,7.76-1.12,2.36-19.78-2.25-19.78-2.25,0,0-.11-16.86,10.9-17.08Z" fill="#ae222f"/>
  <path d="m84.37,96.01c10.55-.94,131.59-1.21,152.01-1.25l-.11-5.68-151.92,2.63c0,1.66.01,3.09.03,4.3Z" fill="#9d9e9b"/>
  <path d="m329,56.67c0-1.1-1.57-7.55-1.57-7.55,0,0-2.05-.08-7.95-.23-5.9-.16-7.08-5.58-8.42-8.18-1.34-2.6,9.44-6.6,10.7-8.49,1.26-1.89-18.33-3.68-22.5-4.15-4.17-.47-16.13-7.6-31.87-15.31C251.65,5.04,231.75,0,193.82,0s-48.36,6.8-48.36,6.8h4.53c-29.98,13.93-46.98,25.61-46.98,25.61-3.15.94-12.91-.2-12.91-.2-45.56,4.64-61.93,9.45-61.93,9.45,0,0,4.16,1.9,3.29,3.16-.87,1.26-13.48,10.4-17.42,13.86-3.93,3.46-9.33,3.26-9.33,3.26C.6,63.81-.14,67.14.02,69.34c.16,2.2,1.81,12.75,1.89,14.16.08,1.42-2.13,1.26-1.42,3.86.71,2.6,6.92,5.67,6.92,5.67l10.22.98c-.62-3.03-2.36-13.13.19-19.52,3.04-7.59,10.8-22.97,32.38-22.97,17.44,0,34.14,11.41,34.14,35.43,0,1.78,0,3.36,0,4.77l151.92-2.63-.08-3.85s4.65-34.23,34.56-32.74c25.68,1.28,30.29,24.18,27.24,37.81,5.62-.49,19.55-1.67,21.49-1.61,2.44.08,3.46-1.97,3.46-1.97,13.61-3.93,8.89-8.42,8.89-8.42,2.99-5.98,2.75-9.91,3.15-15.5.39-5.59-5.98-6.14-5.98-6.14Z" fill="#e5e5e3"/>
  <path d="m270.75,52.49c-29.91-1.49-34.56,32.74-34.56,32.74l.19,9.53c1.89,0,2.92,0,2.92,0-.47-6.37-.24-38.19,31.71-38.54,28.72-.32,24.63,34.29,24.63,34.29,0,0,.9-.08,2.35-.2,3.04-13.63-1.56-36.53-27.24-37.81Z" fill="#9d9e9b"/>
  <path d="m50.2,51.51c-21.58,0-29.34,15.39-32.38,22.97-2.56,6.39-.81,16.49-.19,19.52l2.06.2c-3.15-17.47,4.17-42.17,33.52-39.74,29.35,2.44,29.9,35.25,29.9,37.93s.63,3.7.63,3.7c.12-.03.33-.06.63-.08-.02-2.24-.03-5.19-.03-9.07,0-24.02-16.69-35.43-34.14-35.43Z" fill="#9d9e9b"/>
  <path d="m108.27,36.61s39.13-27.01,44.84-28c0,0,25.8-7.21,46.83-5.21,21.03,2,59.9,5.19,61.01,17.39,1.12,12.2-.7,9.97-.7,9.97l-151.99,5.85Z" fill="#2d2d2b"/>
  <polygon points="189.35 4.57 183.49 34.05 196.03 33.44 198.12 4.57 189.35 4.57" fill="#313d49"/>
  <circle cx="50.14" cy="83.79" r="24.77" transform="translate(-2.08 1.28) rotate(-1.43)" fill="#27262c"/>
  <path d="m31.49,83.79c0,10.33,8.38,18.71,18.71,18.71s18.71-8.38,18.71-18.71-8.38-18.71-18.71-18.71-18.71,8.38-18.71,18.71Z" fill="#c3bfbe"/>
  <g>
    <path d="m43.71,71.25l4.33,4.92s.75,1.18,1.77,1.18,1.77-.83,1.77-.83l4.53-5.28s.63-.75,0-1.26c-.63-.51-2.84-1.26-5.91-1.26s-7.6.83-6.49,2.52Z" fill="#27262c"/>
    <path d="m43.71,96.34l4.33-4.92s.75-1.18,1.77-1.18,1.77.83,1.77.83l4.53,5.28s.63.75,0,1.26c-.63.51-2.84,1.26-5.91,1.26s-7.6-.83-6.49-2.52Z" fill="#27262c"/>
    <path d="m62.9,77.54l-4.92,4.33s-1.18.75-1.18,1.77.83,1.77.83,1.77l5.28,4.53s.75.63,1.26,0c.51-.63,1.26-2.84,1.26-5.91s-.83-7.6-2.52-6.49Z" fill="#27262c"/>
    <path d="m37.81,77.54l4.92,4.33s1.18.75,1.18,1.77-.83,1.77-.83,1.77l-5.28,4.53s-.75.63-1.26,0c-.51-.63-1.26-2.84-1.26-5.91s.83-7.6,2.52-6.49Z" fill="#27262c"/>
  </g>
  <g>
    <path d="m292.79,83.79c0,13.68-11.09,24.77-24.77,24.77s-24.77-11.09-24.77-24.77,11.09-24.77,24.77-24.77,24.77,11.09,24.77,24.77Z" fill="#27262c"/>
    <path d="m249.37,83.79c0,10.33,8.38,18.71,18.71,18.71s18.71-8.38,18.71-18.71-8.38-18.71-18.71-18.71-18.71,8.38-18.71,18.71Z" fill="#c3bfbe"/>
    <g>
      <path d="m261.59,71.25l4.33,4.92s.75,1.18,1.77,1.18,1.77-.83,1.77-.83l4.53-5.28s.63-.75,0-1.26c-.63-.51-2.84-1.26-5.91-1.26s-7.6.83-6.49,2.52Z" fill="#27262c"/>
      <path d="m261.59,96.34l4.33-4.92s.75-1.18,1.77-1.18,1.77.83,1.77.83l4.53,5.28s.63.75,0,1.26c-.63.51-2.84,1.26-5.91,1.26s-7.6-.83-6.49-2.52Z" fill="#27262c"/>
      <path d="m280.78,77.54l-4.92,4.33s-1.18.75-1.18,1.77.83,1.77.83,1.77l5.28,4.53s.75.63,1.26,0c.51-.63,1.26-2.84,1.26-5.91s-.83-7.6-2.52-6.49Z" fill="#27262c"/>
      <path d="m255.69,77.54l4.92,4.33s1.18.75,1.18,1.77-.83,1.77-.83,1.77l-5.28,4.53s-.75.63-1.26,0c-.51-.63-1.26-2.84-1.26-5.91s.83-7.6,2.52-6.49Z" fill="#27262c"/>
    </g>
  </g>
  <path d="m247.03,9.79s-20.37-7.52-53.12-6.64c0,0-27.53-.19-40.58,4.34,0,0-20.16,7.58-48.54,30.24h4.46l1.51-.15,152.55-6.05c-.07-1.42.21-4.06-.21-7.17-.86-6.39-3.09-11.4-16.06-14.57Zm11.74,20.41l-68.87,2.57-79.84,3.64c7.71-5.37,36.61-24.55,45.21-27.76,10.03-3.74,40.67-3.97,43.98-3.8,3.31.16,38.24,1.16,53.92,9.26,0,0,10.16,2.6,5.6,16.1Z" fill="#f0f4f7"/>
  <path d="m99.8,87.28l-.02-.26c-.03-.28-2.58-28.51-.84-37.11,1.69-8.39,2.89-10.44,8.55-14.66l.29-.21c22.93-17.09,40.13-27.19,49.75-29.19,8.62-1.8,24.57-3.01,39.69-3.01,11.25,0,27.21.64,39.3,3.71,22.63,5.74,25.45,9.16,26.49,15.6,1,6.16.79,27.17-.96,31.07l-.06.13-.14.03c-.23.05-23.02,5.57-25.13,32.15l-.02.25-136.91,1.49ZM197.22,3.39c-15.08,0-30.99,1.2-39.58,2.99-9.4,1.96-26.99,12.29-49.53,29.09l-.29.21c-5.52,4.11-6.68,6.12-8.34,14.33-1.63,8.09.57,33.84.82,36.7l135.88-1.48c2.17-25.69,23.45-31.86,25.4-32.36,1.63-4.06,1.82-24.75.87-30.64-1-6.19-3.77-9.49-26.08-15.15-12.03-3.05-27.94-3.69-39.16-3.69Z" fill="#d8d8d6"/>
  <path d="m30.22,60.23l-14.03.07s-.58,2.71,2.77,2.92c3.35.21,7.81.29,7.81.29,0,0,2.04-2.26,3.45-3.28Z" fill="#bc4926"/>
  <path d="m241.06,64.65c.02.97-30.86,1.53-68.95,2.25-38.09.72-68.97,1.34-68.98.36-.02-.97,30.97-2,69.06-2.72,38.09-.72,68.86-.86,68.88.11Z" fill="#d8d8d6"/>
  <path d="m187.25,86.08c-2.3-16.67,2.41-53.73,2.45-54.1l3.62-28.9.55.07-3.62,28.9c-.05.37-4.75,37.36-2.45,53.95l-.55.08Z" fill="#d8d8d6"/>
  <path d="m165,43.96s-.14-2.16,3.59-3.1c3.74-.95,4.8-1.03,6.04-1.03s9.03.52,9.08,3.39c.06,2.87-5.78,3.82-8.05,4-2.27.17-10.81.43-10.66-3.25Z" fill="#d8d8d6"/>
  <path d="m238.56,42.29s-.14-2.16,3.59-3.1c3.74-.95,4.8-1.03,6.04-1.03s9.03.52,9.08,3.39c.06,2.87-5.78,3.82-8.05,4-2.27.17-10.81.43-10.66-3.25Z" fill="#d8d8d6"/>
  <path d="m180.57,43.01c.02.69-.53,1.27-1.22,1.28l-10.31.24c-.69.02-1.27-.53-1.28-1.22v-.28c-.02-.69.53-1.27,1.22-1.28l10.31-.24c.69-.02,1.27.53,1.28,1.22v.28Z" fill="#dce4f1"/>
  <path d="m254.13,41.34c.02.69-.53,1.27-1.22,1.28l-10.31.24c-.69.02-1.27-.53-1.28-1.22v-.28c-.02-.69.53-1.27,1.22-1.28l10.31-.24c.69-.02,1.27.53,1.28,1.22v.28Z" fill="#dce4f1"/>
</svg>
