<svg id="_Слой_1" data-name=" Слой 1" xmlns="http://www.w3.org/2000/svg" viewBox="0 0 331.82 128.99">
  <g>
    <g>
      <g>
        <rect x="18.28" y="57.47" width="291.81" height="42.82" fill="#e8505b"/>
        <rect x="18.28" y="57.47" width="291.81" height="42.82"/>
      </g>
      <path d="m94.38,33.38s-41.43,3.06-56.79,6.5c-10.82,2.43-31.69,6.62-31.44,19.75l1.66,9.41S.06,72.57.06,81.6s-1.89,23.02,16.18,23.58c2.98.09,8.63,0,8.63,0,0,0-3.47-38.49,31.89-39.61,35.97-1.15,33.58,39.26,33.58,39.26h150.12s-6.16-39.37,32.56-39.42c38.72-.06,32.83,39.68,32.83,39.68,0,0,14.24,1.23,20.87-10.74,6.63-11.97,4.9-20.49,4.9-20.49l-.22-7.57c-.07-2.58-2.13-4.65-4.71-4.75h0s2.59-19.05-1.38-22.35-25.73-23.19-25.73-23.19l1.04-.65c1.74-1.09,1.44-3.71-.5-4.37-8.26-2.84-24.6-8.46-28.44-9.81-.58-.2-1.17-.33-1.78-.37-2.29-.18-8.78-.59-20.69-.71C234.69-.09,177.07.07,177.07.07c0,0-19.83,1.63-30.87,6.49-11.61,5.11-51.82,26.82-51.82,26.82Z" fill="#e5e5e3"/>
      <g opacity=".4">
        <path d="m10.56,80.55c-1.5-.31-3.81-.34-4.95.68-.85.76-1.08,1.98-1.21,3.11-.18,1.55-.27,3.15.1,4.66.37,1.52,1.26,2.97,2.63,3.72s3.26.62,4.33-.52c.98-1.04,1.09-2.61,1.06-4.04-.04-2.03.13-3.75-.25-5.74-.07-.38-.27-.86-.52-1.16-.4-.48-.7-.69-1.2-.72"/>
      </g>
      <path d="m7.8,69.04c4.4,0,8.67-.24,13.05-.53.47-.03.99-.08,1.34-.4.42-.39.45-1.03.46-1.6.02-2.36-.1-5.04-1.88-6.57-1.09-.94-2.59-1.23-4.03-1.36-3.53-.33-7.23-.06-10.6,1.07l1.66,9.41Z" fill="#c5d6e2"/>
      <path d="m99.14,103.62s-.02-.13-.03-.38c-.02-.26-.04-.62-.07-1.1-.05-.98-.13-2.41-.23-4.25-.1-1.84-.23-4.1-.49-6.71-.27-2.6-.67-5.57-1.55-8.75-.88-3.17-2.24-6.55-4.24-9.86-2.01-3.29-4.65-6.58-8.19-9.13-7.1-5.05-16.69-7.9-26.72-8.03-10.05-.12-19.61,3.06-26.53,8.35-3.49,2.59-6.38,5.62-8.61,8.79-2.24,3.16-3.88,6.4-5.04,9.48-1.17,3.08-1.78,6.02-2.13,8.61-.38,2.59-.32,4.86-.26,6.7.14,1.84.31,3.26.52,4.21.09.47.15.83.2,1.09.04.25.06.37.06.37,0,0-.03-.12-.09-.37-.05-.25-.13-.61-.22-1.08-.23-.95-.41-2.37-.57-4.21-.08-1.84-.15-4.12.21-6.72.33-2.6.94-5.56,2.1-8.66,1.15-3.1,2.79-6.37,5.04-9.55,2.23-3.19,5.13-6.24,8.65-8.86,6.95-5.34,16.57-8.55,26.68-8.42,10.08.12,19.71,3,26.86,8.09,3.57,2.58,6.22,5.9,8.23,9.22,2,3.34,3.35,6.74,4.23,9.93.87,3.2,1.26,6.17,1.52,8.78.25,2.61.36,4.87.44,6.72.08,1.84.14,3.27.18,4.25.02.48.03.85.05,1.1,0,.25,0,.38,0,.38Z" fill="#fff"/>
      <path d="m100.73,104.27s0-.11-.02-.32c0-.21-.02-.52-.03-.93-.03-.83-.06-2.05-.11-3.64-.09-3.19-.22-7.86-.39-13.79-.16-5.94-.36-13.15-.59-21.41-.06-2.07-.11-4.2-.17-6.39-.07-1.09.04-2.21.14-3.34.08-.56.16-1.12.24-1.69.12-.56.23-1.13.35-1.7.53-2.26,1.3-4.53,2.34-6.74,1.04-2.2,2.28-4.38,3.85-6.4h.01s.02-.02.02-.02c8.03-5.06,16.76-10.56,26-16.38,2.31-1.45,4.65-2.93,7.02-4.42,2.33-1.58,4.84-2.93,7.43-4.15,2.6-1.22,5.3-2.29,8.07-3.22,1.38-.48,2.8-.88,4.21-1.3,1.43-.36,2.86-.77,4.32-1.06,5.6-1.24,11.23-1.86,16.76-2.12,5.53-.26,10.95-.24,16.22.05h.15s-.03.16-.03.16c-2.49,11.13-4.84,21.63-6.99,31.25v.02s-.02.02-.02.02c-1.31,2.15-2.35,4.42-3.13,6.71-.75,2.29-1.23,4.65-1.06,6.95.18,2.31.24,4.57.3,6.76.04,2.19.08,4.32.13,6.39.12,8.26.15,15.46.18,21.39,0,5.93.01,10.59.01,13.78,0,1.59-.01,2.81-.01,3.63,0,.41,0,.72,0,.93,0,.21,0,.32,0,.32,0,0,0-.11,0-.32,0-.21,0-.52,0-.93,0-.83-.01-2.05-.02-3.63-.02-3.19-.05-7.85-.08-13.78-.04-5.93-.09-13.14-.23-21.39-.04-2.06-.09-4.19-.14-6.38-.06-2.19-.13-4.44-.31-6.75-.17-2.34.31-4.72,1.06-7.03.78-2.31,1.83-4.59,3.15-6.77l-.02.04c2.14-9.62,4.48-20.12,6.96-31.25l.12.16c-5.26-.29-10.68-.31-16.19-.05-5.51.26-11.13.87-16.71,2.11-1.45.29-2.88.7-4.3,1.06-1.41.42-2.82.82-4.2,1.3-2.76.93-5.45,1.99-8.04,3.21-2.58,1.22-5.08,2.56-7.4,4.13-2.37,1.49-4.71,2.96-7.02,4.42-9.24,5.81-17.98,11.31-26.02,16.36l.03-.02c-1.55,1.99-2.79,4.16-3.83,6.35-1.03,2.19-1.8,4.44-2.33,6.69-1.18,4.51-.59,8.95-.58,13.07.2,8.26.38,15.47.53,21.41.14,5.93.25,10.6.33,13.79.03,1.59.06,2.81.08,3.64,0,.41.01.72.01.93,0,.21,0,.32,0,.32Z" fill="#263238"/>
      <path d="m196.21,6.2s.08,0,.25-.02c.17,0,.41-.01.72-.02.65-.02,1.59-.04,2.79-.07,2.44-.05,5.97-.12,10.36-.2,8.8-.15,21.06-.36,34.91-.6h.07s.04.05.04.05c1.57,1.92,3.22,3.94,4.89,5.99,4.96,6.08,9.68,11.86,13.97,17.13.54.66,1.07,1.31,1.59,1.95.52.65.96,1.36,1.31,2.1.69,1.47,1.04,3.05,1.04,4.58.02,1.53-.3,3-.85,4.3-.55,1.29-1.08,2.52-1.59,3.71-2.03,4.71-3.68,8.52-4.83,11.17-.57,1.31-1.02,2.33-1.33,3.03-.15.34-.27.6-.35.79-.08.18-.13.26-.13.26,0,0,.03-.09.1-.27.08-.19.19-.45.33-.8.3-.71.73-1.73,1.28-3.05,1.13-2.66,2.75-6.48,4.75-11.2.91-2.38,2.5-4.88,2.39-7.93-.01-1.49-.36-3.04-1.04-4.48-.35-.72-.77-1.4-1.28-2.05-.52-.64-1.05-1.29-1.59-1.95-4.3-5.26-9.02-11.04-13.99-17.11-1.67-2.05-3.32-4.07-4.89-5.99l.11.05c-13.86.2-26.11.38-34.92.5-4.39.05-7.92.09-10.36.12-1.21,0-2.14.02-2.79.02-.31,0-.55,0-.72,0-.16,0-.25,0-.25,0Z" fill="#263238"/>
      <path d="m178.59,52.63s.15-.01.42-.06c.27-.05.67-.15,1.11-.44.43-.28.89-.77,1.12-1.46.12-.35.16-.73.14-1.16,0-.41-.11-.85-.33-1.25-.42-.8-1.34-1.48-2.42-1.48-1.11,0-2.3,0-3.55.01-2.5,0-5.25,0-8.13.01-.69,0-1.36.27-1.85.72-.5.45-.81,1.08-.88,1.72-.07.66.02,1.31.34,1.86.3.55.8.96,1.35,1.2.55.25,1.15.21,1.75.21.59,0,1.17,0,1.72,0,1.11,0,2.14.01,3.09.02,1.87.02,3.39.03,4.47.04.51.01.91.02,1.22.03.28,0,.42.02.42.03s-.15.02-.42.03c-.3,0-.71.01-1.22.03-1.08.01-2.61.03-4.47.04-.95,0-1.98.01-3.09.02-.56,0-1.13,0-1.72,0-.3,0-.59.01-.91,0-.32-.02-.64-.09-.94-.21-.6-.25-1.14-.7-1.48-1.3-.35-.59-.45-1.33-.38-2.01.07-.71.42-1.4.96-1.89.54-.5,1.28-.79,2.04-.79,2.88,0,5.63,0,8.13.01,1.25,0,2.44.01,3.55.01,1.17.01,2.15.75,2.59,1.61.22.44.33.9.33,1.34.01.43-.04.85-.17,1.21-.26.73-.76,1.23-1.21,1.5-.46.28-.88.38-1.16.4-.28.03-.43,0-.43,0Z" fill="#263238"/>
      <path d="m256.39,52.63s.15-.01.42-.06c.27-.05.67-.15,1.11-.44.43-.28.89-.77,1.12-1.46.12-.35.16-.73.14-1.16,0-.41-.11-.85-.33-1.25-.42-.8-1.34-1.48-2.42-1.48-1.11,0-2.3,0-3.54.01-2.5,0-5.25,0-8.13.01-.69,0-1.36.27-1.85.72-.5.45-.81,1.08-.88,1.72-.07.66.02,1.31.34,1.86.3.55.8.96,1.35,1.2.55.25,1.15.21,1.75.21.59,0,1.17,0,1.72,0,1.11,0,2.14.01,3.09.02,1.87.02,3.39.03,4.47.04.51.01.91.02,1.22.03.28,0,.42.02.42.03s-.15.02-.42.03c-.3,0-.71.01-1.22.03-1.08.01-2.61.03-4.47.04-.95,0-1.98.01-3.09.02-.56,0-1.13,0-1.72,0-.3,0-.59.01-.91,0-.32-.02-.64-.09-.94-.21-.6-.25-1.14-.7-1.48-1.3-.35-.59-.45-1.33-.38-2.01.07-.71.42-1.4.96-1.89.54-.5,1.28-.79,2.04-.79,2.88,0,5.63,0,8.13.01,1.25,0,2.44.01,3.55.01,1.17.01,2.15.75,2.59,1.61.22.44.33.9.33,1.34.01.43-.04.85-.17,1.21-.26.73-.76,1.23-1.21,1.5-.46.28-.88.38-1.16.4-.28.03-.43,0-.43,0Z" fill="#263238"/>
      <path d="m324.62,39.93h-15.57c-2.13,0-4.09,1.18-5.08,3.07h0c-.81,1.55-.88,3.39-.17,4.99l6.11,13.87,15.59-.15s3.32-17.58-.87-21.77Z" fill="#ae222f"/>
      <path d="m108.4,37.97l80.33-1.48,52.28-.96,17.24-9.95c1.4-.81,1.77-2.65.79-3.94l-10.73-14.1c-1.12-1.47-2.86-2.34-4.7-2.36l-58.47-.48s-22.02-1.28-39.37,8.43c-18.26,10.22-37.37,24.83-37.37,24.83Z" fill="#292c3b"/>
      <path d="m145.22,6.16s4.03,1.84,1.41,3.54c-2.62,1.7-43.32,27.36-43.32,27.36l-9.36-4.23c16.57-9.23,33.31-18.2,51.27-26.66Z" fill="#2d2d2b"/>
      <path d="m104.62,37.7s-.08.03-.25.06c-.18.04-.42.09-.74.16-.66.14-1.62.34-2.85.59-2.48.49-6.08,1.19-10.54,1.95-8.92,1.54-21.31,3.33-35.08,4.52-3.44.3-6.81.54-10.06.76-3.25.21-6.38.41-9.36.68-5.96.52-11.29,1.39-15.62,2.68-4.35,1.25-7.67,2.85-9.85,4.11-1.12.59-1.92,1.17-2.48,1.52-.27.17-.49.31-.64.41-.15.09-.22.13-.22.13,0,0,.07-.06.21-.15.15-.1.36-.25.63-.43.56-.36,1.35-.96,2.46-1.56,2.17-1.29,5.49-2.93,9.85-4.2,4.34-1.32,9.69-2.21,15.66-2.74,2.98-.28,6.12-.48,9.37-.7,3.25-.22,6.61-.46,10.05-.76,13.76-1.19,26.14-2.95,35.07-4.43,4.46-.74,8.07-1.41,10.55-1.87,1.23-.23,2.2-.41,2.86-.54.32-.06.57-.1.75-.13.17-.03.26-.04.26-.04Z" fill="#263238"/>
      <path d="m330.84,73.67c0,.08-5.35.14-11.96.14s-11.96-.06-11.96-.14,5.35-.14,11.96-.14,11.96.06,11.96.14Z" fill="#263238"/>
      <path d="m232.89,87.34c0,.08-30.22.14-67.5.14s-67.5-.06-67.5-.14,30.22-.14,67.5-.14,67.5.06,67.5.14Z" fill="#263238"/>
      <path d="m21.28,74.13c0,.08-4.27.14-9.54.14s-9.54-.06-9.54-.14,4.27-.14,9.54-.14,9.54.06,9.54.14Z" fill="#263238"/>
      <path d="m299.15,15.44s-3.59,4.02-2.18,6.96c1.41,2.95,15.98,13.26,15.98,13.26l10.58,1.98-24.38-22.21Z" fill="#2d2d2b"/>
      <polygon points="198.59 8.25 196.21 33.93 238.77 32.72 255.93 22.75 244.82 8.25 198.59 8.25" fill="#2d2d2b"/>
      <path d="m118.48,35.25s25.67-18.54,35.81-22.23c9.78-3.56,14.87-4.45,24.06-4.71,8.78-.25,14.13,0,14.13,0l-6.79,26.11-67.2.83Z" fill="#2d2d2b"/>
      <g>
        <path d="m114.73,35.34h0c0-1.63.88-3.13,2.3-3.92l5.9-3.31c1.68-.94,3.58-1.44,5.51-1.44h0c1.2,0,2.38.19,3.5.56,2.52.83,4.2,3.22,4.3,5.87h0c.14,3.68-2.81,6.75-6.49,6.75h-10.51c-2.48,0-4.5-2.01-4.5-4.5Z" fill="#e5e5e3"/>
        <path d="m114.73,35.34s.02.2.07.57c.05.37.18.92.52,1.54.35.61.92,1.3,1.81,1.78.44.23.96.41,1.52.48.56.07,1.17.03,1.81.03,2.57,0,5.62-.02,9-.03.84,0,1.69-.1,2.5-.41.81-.3,1.58-.78,2.22-1.41.64-.63,1.17-1.41,1.5-2.28.33-.87.46-1.83.39-2.78-.14-1.91-1.17-3.68-2.65-4.71-.74-.53-1.58-.83-2.44-1.03-.85-.2-1.71-.3-2.55-.3-1.68,0-3.26.37-4.62.99-.68.3-1.3.69-1.91,1.02-.61.34-1.2.67-1.76.98-1.12.62-2.13,1.18-3.02,1.68-.89.48-1.47,1.17-1.81,1.78-.34.62-.47,1.17-.52,1.54-.05.37-.05.57-.06.57,0,0-.03-.2.01-.58.04-.37.15-.94.48-1.58.33-.64.92-1.36,1.83-1.86.89-.51,1.89-1.08,3-1.71.56-.32,1.14-.65,1.75-.99.61-.34,1.23-.73,1.92-1.04,1.38-.64,3-1.03,4.71-1.03.86,0,1.73.09,2.61.3.87.2,1.76.51,2.53,1.06,1.55,1.07,2.62,2.91,2.77,4.91.07.99-.06,1.99-.41,2.9-.34.91-.9,1.72-1.57,2.37-.67.66-1.47,1.15-2.32,1.47-.85.32-1.75.43-2.6.42-3.38-.01-6.43-.02-9-.03-.64-.01-1.25.02-1.84-.05-.58-.08-1.11-.27-1.57-.52-.91-.51-1.49-1.23-1.83-1.86-.33-.65-.45-1.21-.48-1.58-.03-.38-.01-.58-.01-.58Z" fill="#263238"/>
      </g>
      <path d="m312.54,103.86s0-.12.02-.36c.02-.25.04-.6.07-1.07.03-.47.08-1.05.12-1.74.02-.69.05-1.48.08-2.37,0-.89,0-1.89-.01-2.97-.07-1.08-.08-2.27-.22-3.53-.23-2.52-.65-5.39-1.52-8.46-.45-1.53-.97-3.12-1.68-4.71-.67-1.6-1.53-3.2-2.54-4.78-2-3.17-4.84-6.08-8.22-8.58-3.39-2.49-7.41-4.49-11.79-5.81-4.39-1.35-9.16-1.83-14.02-1.87-4.86-.01-9.62.65-13.99,2.04-2.19.69-4.27,1.56-6.23,2.57-1.95,1.02-3.74,2.24-5.41,3.53-3.31,2.61-6.1,5.53-8.33,8.54-1.1,1.52-1.99,3.09-2.77,4.65-.73,1.58-1.4,3.11-1.91,4.62-2.13,6.03-2.8,11.21-3.04,14.76-.08,1.78-.07,3.17-.03,4.11.03.46.05.82.06,1.07.01.24.01.37.01.37,0,0-.02-.12-.04-.36-.02-.25-.05-.6-.09-1.07-.06-.94-.09-2.33-.02-4.12.21-3.56.85-8.76,2.96-14.82.51-1.52,1.17-3.06,1.91-4.65.78-1.57,1.67-3.16,2.78-4.69,2.23-3.03,5.03-5.98,8.36-8.61,1.67-1.3,3.47-2.54,5.44-3.57,1.97-1.02,4.07-1.9,6.27-2.59,4.4-1.4,9.19-2.07,14.07-2.05,4.88.03,9.68.53,14.1,1.88,4.42,1.33,8.45,3.35,11.87,5.87,1.71,1.26,3.26,2.63,4.65,4.08,1.39,1.45,2.61,2.98,3.61,4.58,1.01,1.59,1.87,3.2,2.54,4.82.71,1.6,1.22,3.2,1.67,4.74.87,3.09,1.27,5.97,1.49,8.5.14,1.26.14,2.45.2,3.54,0,1.09,0,2.08,0,2.98-.04.89-.08,1.69-.11,2.37-.04.69-.1,1.27-.14,1.74-.04.46-.08.82-.1,1.07-.02.24-.04.36-.04.36Z" fill="#fff"/>
      <path d="m184.56,37.97s-.04,0-.12.01c-.1,0-.21,0-.36.01-.34,0-.79.02-1.37.03-1.22.02-2.93.05-5.04.09-4.26.08-10.14.24-16.64.41-6.5.18-12.39.3-16.65.33-2.13.02-3.86.02-5.05,0-.58,0-1.03-.02-1.37-.02-.14,0-.26,0-.36-.01-.08,0-.12,0-.12-.01s.04,0,.12-.01c.1,0,.21,0,.36-.01.34,0,.79-.02,1.37-.03,1.22-.02,2.93-.05,5.04-.09,4.26-.08,10.14-.24,16.64-.41,6.5-.18,12.38-.3,16.65-.33,2.13-.02,3.86-.02,5.05,0,.58,0,1.04.02,1.37.02.14,0,.26,0,.36.01.08,0,.12,0,.12.01Z" fill="#fff"/>
      <path d="m177.59,45.88c0,.08-2.06.14-4.61.14s-4.61-.06-4.61-.14,2.06-.14,4.61-.14,4.61.06,4.61.14Z" fill="#fff"/>
      <path d="m242.32,37.96c0,.08-11.38.2-25.41.29-14.04.08-25.41.09-25.41.01,0-.08,11.37-.2,25.41-.29,14.03-.08,25.41-.09,25.41-.01Z" fill="#fff"/>
      <path d="m254.91,45.44c0,.08-3.19.17-7.13.2-3.94.04-7.13,0-7.13-.07,0-.08,3.19-.17,7.13-.2,3.94-.04,7.13,0,7.13.07Z" fill="#fff"/>
      <path d="m37.09,41.55s-.11.03-.31.06c-.23.03-.53.07-.89.12-.39.04-.86.1-1.41.19-.55.09-1.17.17-1.86.3-1.37.24-3,.6-4.78,1.07-1.77.49-3.71,1.11-5.69,1.88-1.98.78-3.81,1.64-5.45,2.49-1.63.86-3.06,1.7-4.23,2.46-.6.36-1.11.73-1.57,1.04-.46.31-.85.58-1.16.82-.3.21-.54.38-.73.52-.17.12-.26.17-.27.17,0,0,.07-.08.23-.21.18-.15.42-.33.7-.56.31-.24.68-.54,1.14-.86.45-.32.96-.7,1.55-1.08,1.16-.78,2.59-1.64,4.22-2.52,1.64-.86,3.48-1.73,5.47-2.52,1.99-.77,3.94-1.39,5.72-1.87,1.79-.46,3.42-.81,4.81-1.02.69-.13,1.32-.19,1.87-.27.55-.08,1.03-.12,1.42-.15.37-.03.66-.05.9-.07.21-.01.31-.01.31,0Z" fill="#fff"/>
      <path d="m131.01,29.14s-.16-.21-.51-.49c-.35-.28-.94-.6-1.74-.7-.8-.11-1.76.03-2.8.3-1.04.26-2.17.63-3.31,1.13-2.29.98-4.15,2.29-5.39,3.35-1.25,1.05-1.91,1.82-1.95,1.79-.01-.01.14-.21.44-.56.31-.34.76-.83,1.38-1.37,1.22-1.1,3.09-2.46,5.41-3.45,1.15-.5,2.3-.87,3.36-1.12,1.05-.26,2.06-.39,2.89-.25.83.13,1.44.5,1.78.81.17.16.28.3.35.4.07.1.09.16.09.17Z" fill="#fff"/>
    </g>
    <path d="m300.34,15.25s-.78.23-2.24.23c-.73-.02-1.62-.1-2.63-.32-1.01-.22-2.13-.57-3.35-1.03-1.21-.46-2.51-1.04-3.91-1.64-.7-.28-1.43-.58-2.18-.88-.75-.3-1.54-.56-2.35-.85-3.23-1.11-6.86-2.11-10.72-2.92-7.73-1.62-14.87-2.29-20.03-2.49-1.29-.07-2.46-.07-3.49-.1-1.02,0-1.91,0-2.64,0-.71.02-1.26.03-1.67.04-.18,0-.32,0-.43,0-.1,0-.15,0-.15,0,0,0,.05-.01.15-.02.11,0,.26-.02.43-.03.4-.02.96-.05,1.67-.09.73-.01,1.62-.03,2.64-.05,1.03.01,2.2,0,3.5.06,5.18.15,12.34.79,20.08,2.42,3.87.82,7.51,1.82,10.75,2.95.8.3,1.6.56,2.35.86.75.31,1.48.61,2.19.9,1.4.61,2.68,1.2,3.89,1.66,1.2.47,2.31.83,3.31,1.06,1,.23,1.88.33,2.6.37.72.02,1.28-.02,1.66-.06.18-.02.32-.04.43-.05.1-.01.15-.01.15,0Z" fill="#263238"/>
  </g>
  <g>
    <path d="m85.71,100.28c0,15.85-12.85,28.7-28.7,28.7s-28.7-12.85-28.7-28.7,12.85-28.7,28.7-28.7,28.7,12.85,28.7,28.7Z" fill="#27262c"/>
    <path d="m35.39,100.28c0,12.43,10.45,22.42,23.06,21.64,10.8-.66,19.59-9.45,20.26-20.25.79-12.61-9.2-23.08-21.63-23.08s-21.69,9.7-21.69,21.69Z" fill="#c3bfbe"/>
    <g>
      <path d="m49.55,85.75l5.01,5.71s.87,1.37,2.05,1.37,2.05-.96,2.05-.96l5.25-6.12s.73-.87,0-1.46c-.73-.6-3.29-1.46-6.84-1.46s-8.81.96-7.53,2.92h0Z" fill="#27262c"/>
      <path d="m49.55,114.83l5.01-5.71s.87-1.37,2.05-1.37,2.05.96,2.05.96l5.25,6.12s.73.87,0,1.46c-.73.6-3.29,1.46-6.84,1.46s-8.81-.96-7.53-2.92h0Z" fill="#27262c"/>
      <path d="m71.8,93.03l-5.71,5.01s-1.37.87-1.37,2.05.96,2.05.96,2.05l6.12,5.25s.87.73,1.46,0c.6-.73,1.47-3.29,1.47-6.85s-.96-8.81-2.92-7.53h0Z" fill="#27262c"/>
      <path d="m42.72,93.03l5.71,5.01s1.37.87,1.37,2.05-.96,2.05-.96,2.05l-6.11,5.25s-.87.73-1.47,0-1.46-3.29-1.46-6.84.96-8.81,2.92-7.53h0Z" fill="#27262c"/>
    </g>
  </g>
  <g>
    <path d="m301.16,100c0,15.85-12.85,28.7-28.7,28.7s-28.7-12.85-28.7-28.7,12.85-28.7,28.7-28.7,28.7,12.85,28.7,28.7Z" fill="#27262c"/>
    <path d="m250.84,100c0,12.43,10.45,22.42,23.06,21.64,10.8-.66,19.59-9.45,20.26-20.25.79-12.61-9.2-23.08-21.63-23.08s-21.69,9.7-21.69,21.69Z" fill="#c3bfbe"/>
    <g>
      <path d="m265,85.47l5.01,5.71s.87,1.37,2.05,1.37,2.05-.96,2.05-.96l5.25-6.12s.73-.87,0-1.46c-.73-.6-3.29-1.46-6.84-1.46s-8.81.96-7.53,2.92h0Z" fill="#27262c"/>
      <path d="m265,114.54l5.01-5.71s.87-1.37,2.05-1.37,2.05.96,2.05.96l5.25,6.12s.73.87,0,1.46c-.73.6-3.29,1.46-6.84,1.46s-8.81-.96-7.53-2.92h0Z" fill="#27262c"/>
      <path d="m287.24,92.75l-5.71,5.01s-1.37.87-1.37,2.05.96,2.05.96,2.05l6.12,5.25s.87.73,1.46,0c.6-.73,1.47-3.29,1.47-6.85s-.96-8.81-2.92-7.53h0Z" fill="#27262c"/>
      <path d="m258.17,92.75l5.71,5.01s1.37.87,1.37,2.05-.96,2.05-.96,2.05l-6.11,5.25s-.87.73-1.47,0-1.46-3.29-1.46-6.84.96-8.81,2.92-7.53h0Z" fill="#27262c"/>
    </g>
  </g>
</svg>
