<svg id="_Слой_1" data-name=" Слой 1" xmlns="http://www.w3.org/2000/svg" viewBox="0 0 329.29 146.86">
  <g>
    <path d="m144.18,51.73l-67.21-.12c9.34-10.53,29.74-33.6,39.46-45.14,3.41-.63,9.41-1.54,38.89-2.17l-11.15,47.44Z" fill="#2d2d2d"/>
    <path d="m151.57,5.78c-27.34.62-33.44,1.5-36.38,2.02-9.29,11-27.71,31.86-37.11,42.47l63.01.11,10.49-44.61Z" fill="#2d2d2b"/>
    <g>
      <g>
        <g>
          <rect x="304.53" y="31.75" width="24.76" height="57.34" rx="2.61" ry="2.61" fill="#2d2d2d"/>
          <path d="m307.97,32.26h17.89c1.32,0,2.39,1.07,2.39,2.39v8.75c0-1.32-1.07-2.39-2.39-2.39h-17.89c-1.32,0-2.39,1.07-2.39,2.39v-8.75c0-1.32,1.07-2.39,2.39-2.39Z" fill="#383838"/>
          <path d="m307.97,88.14h17.89c1.32,0,2.39-1.07,2.39-2.39v-8.75c0,1.32-1.07,2.39-2.39,2.39h-17.89c-1.32,0-2.39-1.07-2.39-2.39v8.75c0,1.32,1.07,2.39,2.39,2.39Z" fill="#111"/>
        </g>
        <path d="m106.55,112.44c0,3.24,2.63,5.86,5.86,5.86h89.92c3.24,0,5.86-2.63,5.86-5.86h0c0-3.24-2.63-5.86-5.86-5.86h-89.92c-3.24,0-5.86,2.63-5.86,5.86h0Z" fill="#2d2d2d"/>
        <path d="m299.31,111.35H3.12c-1.86-1.36-3.1-3.44-3.1-6.63,0-8.25-.43-17.38,3.04-17.81v-14.12c0-10.43,7.82-8.47,7.82-8.47,0,0,.43-3.04,5.65-7.82,9.99-2.17,67.77-6.08,67.77-6.08,0,0,27.94-36.18,35.98-47.52,3.04-4.78,167.1-2.21,167.1-2.21,4.96,11.39,21.07,52.35,21.07,52.35,3.24,19.32,2.06,36.92,3.04,36.92,2.17,0-.43,18.24-.43,18.24,0,0-5.05,1.64-11.74,3.15Z" fill="#e3e5e5"/>
        <polygon points="13.05 65.19 306.27 55.42 304.97 49.56 86.03 52.81 17.61 58.03 13.05 65.19" fill="#fff" opacity=".7"/>
        <path d="m91.24,54.99h216.77v1.3H91.24v-1.3Zm0,18.68h134.23s0-1.3,0-1.3H91.24s0,1.3,0,1.3Zm1.05-3.91h135.79s0-1.3,0-1.3H92.29s0,1.3,0,1.3Z" fill="#cecece"/>
        <path d="m103.52,104.29l-12.22-28.08-1.04-28.13.15-.19c6.31-8.11,21.74-28.03,28.78-37.76l.79-1.09,1.33-.21c4-.65,10.74-1.38,40.25-1.89l3.31-.06v97.53s-61.35-.12-61.35-.12ZM161.58,8.23c-29.43.51-36.11,1.24-40.07,1.87l-.8.13-.47.65c-7.01,9.67-22.27,29.38-28.66,37.61l.97,27.3,11.84,27.19,59.19.11V8.2s-1.99.03-1.99.03Zm3.94-1.34l2.23-.05c14.43-.21,26.16-.33,46.77-.35h2.34s.75,2.21.75,2.21c4.36,12.89,8.56,26.09,12.82,40.35l.03.11-1.43,20.16-24.08,34.96h-39.44V6.89Zm62.25,61.99l1.39-19.57c-4.25-14.2-8.43-27.35-12.77-40.2l-.45-1.33h-1.4c-20.6.02-32.33.14-46.75.35l-.96.02v94.82s37.46,0,37.46,0l23.49-34.11Z" fill="#bfbfbf"/>
        <path d="m161.61,49.99l-68.64-.11c6.87-8.83,21.84-28.17,28.85-37.85,3.32-.53,9.18-1.32,39.79-1.85v39.8Zm71.51,0l67.13-.11c-3.69-9.61-11.37-29.48-15.72-40.02-8.83-.07-39.63-.11-64.12-.12,4.48,13.34,8.7,26.76,12.71,40.24ZM167.47,10.1v39.9s59.52,0,59.52,0c-4.03-13.48-8.27-26.91-12.79-40.24-21.39.02-33.28.15-46.73.35Z" fill="#2d2d2d"/>
        <path d="m168.87,48.6V11.47c13.48-.2,24.92-.31,44.33-.33,4.05,11.99,7.95,24.27,11.92,37.45h-56.25Zm65.29,0c-3.93-13.17-7.8-25.46-11.81-37.45,23.37,0,51.66.05,61.25.11,4.06,9.88,10.6,26.77,14.63,37.24l-64.07.1Zm-73.94,0l-64.4-.1c7.92-10.2,20.33-26.29,26.8-35.17,2.93-.45,9.2-1.2,37.61-1.72v36.99Z" fill="#2d2d2b"/>
        <path d="m110.7,114.75l-52.91,15.17-52.81-15.41s11.33-4.35,17.15-3.58l13.81-23.93c1.8-3.12,6.18-5.64,9.77-5.64h27.63c1.88,0,3.97.7,5.8,1.81.95.9,1.97,1.74,3.03,2.53.36.42.68.85.94,1.3l13.82,23.93c.03.06.42.11,1.08.16.02.09,12.66,3.58,12.68,3.66Zm72.64-4.81l62.99,20.85,61.9-16.94-23.95-2.5c-.14-.08-.26-.15-.35-.22-.09-.07-.16-.14-.2-.2l-13.81-23.93c-1.8-3.12-6.18-5.64-9.77-5.64h-27.63c-3.6,0-7.97,2.53-9.77,5.64l-13.81,23.93s-.07.04-.16.06c-.03,0-.06.01-.09.02-.08.01-.18.03-.31.04-.04,0-.09,0-.13.01-.01,0-.03,0-.04,0-.04.1-24.82-1.22-24.85-1.12Z" fill="#2d2d2d"/>
        <g>
          <path d="m285.45,115.58l-12.87-28.58c-1.54-3.12-5.7-5.64-9.3-5.64h-27.63c-3.6,0-8.19,2.53-10.25,5.64l-15.83,23.93c-.68,1.03-111.48,1.03-111.98,0l-11.8-23.93c-1.54-3.12-5.7-5.64-9.3-5.64h-27.63c-3.6,0-8.19,2.53-10.25,5.64l-15.83,23.93c-.68,1.03-17.45,3.58-17.45,3.58-2.78-1.28-4.67-3.53-4.33-7.5.05-.61.1-1.23.15-1.85h16.41s14.6-22.07,14.6-22.07c3.66-5.53,10.96-9.55,17.35-9.55h27.63c6.39,0,13.01,4.02,15.74,9.55l10.89,22.07h100.58s14.6-22.07,14.6-22.07c3.66-5.53,10.96-9.55,17.35-9.55h27.63c6.39,0,13.01,4.02,15.74,9.55l10.89,22.07h22.28c-.61,2.99-1.93,9.99-1.93,9.99,0,0-5.23,1.91-14.9,3.58,0,0-10.06-2.12-10.57-3.15Z" fill="#d4d6d6"/>
          <path d="m290.38,107.45l-10.89-22.08c-2.73-5.53-9.35-9.55-15.74-9.55h-27.63c-6.39,0-13.69,4.02-17.35,9.55l-14.6,22.08h-100.58s-10.89-22.08-10.89-22.08c-2.73-5.53-9.35-9.55-15.74-9.55h-27.63c-6.39,0-13.69,4.02-17.35,9.55l-14.6,22.08H1c0-.15,0-.28,0-.44.05-.61.1-1.23.15-1.85h16.41s14.6-22.07,14.6-22.07c3.66-5.53,10.96-9.55,17.35-9.55h27.63c6.39,0,13.01,4.02,15.74,9.55l10.89,22.07h100.58s14.6-22.07,14.6-22.07c3.66-5.53,10.96-9.55,17.35-9.55h27.63c6.39,0,13.01,4.02,15.74,9.55l10.89,22.07h22.28c-.17.83-.33,1.6-.49,2.29h-21.99Z" fill="#fff"/>
        </g>
        <g>
          <circle cx="246.32" cy="116.45" r="30.41" fill="#242424"/>
          <path d="m224.38,116.45c0,12.12,9.82,21.94,21.94,21.94,12.12,0,21.94-9.82,21.94-21.94s-9.82-21.94-21.94-21.94c-12.12,0-21.94,9.82-21.94,21.94Zm2.02-3.2l6.81.29,4.06,2.69-4.07,2.7-6.86.29c-.13-.91-.21-1.83-.21-2.78,0-1.09.11-2.16.28-3.2Zm15.73,7.19c-.14.28-.25.58-.32.89-.21.33-.48.62-.84.84l-1.6,1.02,1.01-1.59c.23-.36.53-.64.87-.85.31-.07.6-.17.88-.31Zm-.87-8.71c-.33-.21-.62-.48-.84-.84l-1.02-1.6,1.59,1.01c.36.23.64.53.85.87.07.31.17.6.31.88-.28-.14-.58-.25-.89-.32Zm-2.53,6.97l-1.89.08,1.67-.87c.38-.2.78-.29,1.18-.3.3.09.6.15.91.17-.26.18-.51.38-.72.61-.34.18-.73.29-1.15.31Zm-1.88-5.01l1.88.08c.43.02.82.14,1.17.33.21.23.45.43.71.6-.32.02-.63.08-.94.17-.39-.02-.78-.11-1.15-.3l-1.68-.88Zm-3.23-1.69l-6.01-3.14c.76-1.87,1.78-3.6,3.03-5.14l5.68,3.61,2.17,4.37-4.88.3Zm.24-11.43c1.56-1.23,3.3-2.22,5.18-2.95l3.08,5.9-.3,4.87-4.38-2.18-3.58-5.64Zm5.96-3.24c.88-.3,1.79-.55,2.73-.72l-.27,4.42-2.45-3.7Zm2.72,38.94c-1.02-.19-2-.47-2.96-.81l2.66-4.01.3,4.82Zm-3.7-1.08c-1.88-.75-3.62-1.77-5.17-3.02l3.76-5.91,4.37-2.17.3,4.88-3.25,6.23Zm-2.54-10.06l-5.88,3.73c-1.23-1.57-2.22-3.32-2.95-5.21l6.13-3.2,4.87.3-2.18,4.38Zm-9.1-2.23c-.32-.93-.56-1.9-.74-2.89l4.66.29-3.92,2.6Zm-.67-10.47c.19-.96.48-1.9.8-2.81l3.8,2.52-4.6.29Zm6.69-11.35l1.99,4.01-4.02-2c.63-.71,1.3-1.39,2.03-2.01Zm13.11-4.85c1.02,0,2.02.1,3.01.25l-.28,6.63-2.69,4.06-2.7-4.07-.28-6.63c.97-.14,1.95-.24,2.95-.24Zm-1.37,26.66c-.02.39-.11.78-.3,1.15l-.88,1.68.08-1.88c.02-.43.14-.82.33-1.17.23-.21.43-.45.6-.71.02.32.08.63.17.94Zm-.14-12.39c-.18-.26-.38-.51-.61-.73-.18-.34-.29-.73-.31-1.15l-.08-1.89.87,1.67c.2.38.29.78.3,1.18-.09.3-.15.6-.17.91Zm4.05,15.23l-.87-1.67c-.2-.38-.29-.78-.3-1.18.09-.3.15-.6.17-.91.18.26.38.51.61.72.18.34.29.73.31,1.15l.08,1.89Zm-.05-17.1c-.02.43-.14.82-.33,1.17-.23.21-.43.45-.6.71-.02-.32-.08-.63-.17-.94.02-.39.11-.78.3-1.15l.88-1.68-.08,1.89Zm17.49,10.61l-6.84-.29-4.06-2.69,4.07-2.7,6.78-.29c.16,1.03.27,2.09.27,3.17,0,.95-.09,1.89-.22,2.81Zm-10.48-.44l-1.89-.08c-.43-.02-.82-.14-1.17-.33-.21-.23-.45-.43-.71-.6.32-.02.63-.08.93-.17.39.02.78.11,1.15.3l1.68.88Zm-2.84-3.91c-.3-.09-.6-.15-.91-.17.26-.18.51-.38.73-.61.34-.18.73-.29,1.15-.31l1.89-.08-1.67.87c-.38.2-.78.29-1.18.3Zm.29,8.31l-1.59-1.01c-.36-.23-.64-.53-.85-.87-.07-.31-.18-.6-.31-.88.28.14.58.25.89.32.33.21.62.48.84.84l1.02,1.6Zm-2.73-11.14c.14-.28.25-.58.32-.89.21-.33.48-.62.84-.84l1.6-1.02-1.01,1.59c-.23.36-.53.64-.87.85-.31.07-.6.18-.88.31Zm.04-8.54l3.08-5.89c1.88.73,3.62,1.73,5.17,2.96l-3.58,5.64-4.37,2.17-.3-4.88Zm5.79,3.83l5.66-3.6c1.25,1.54,2.27,3.28,3.02,5.15l-5.99,3.13-4.87-.3,2.18-4.38Zm8.97,2.32c.32.91.6,1.83.79,2.79l-4.58-.28,3.79-2.51Zm.85,10.37c-.18.99-.43,1.94-.74,2.87l-3.9-2.59,4.64-.29Zm-1.02,3.63c-.73,1.89-1.72,3.64-2.95,5.2l-5.87-3.73-2.17-4.37,4.88-.3,6.11,3.19Zm-6.19,8.5c-1.55,1.25-3.29,2.27-5.17,3.02l-3.25-6.23.3-4.87,4.38,2.18,3.75,5.9Zm-5.92,3.29c-.96.34-1.94.62-2.96.81l.3-4.82,2.66,4.01Zm-2.9-38.85c.93.18,1.84.43,2.72.73l-2.45,3.69-.27-4.42Zm11.34,6.51l-4.01,1.99,1.99-4c.72.62,1.39,1.29,2.02,2Zm-1.91,28.53l-2.12-4.27,4.25,2.12c-.65.77-1.37,1.49-2.13,2.15Zm-13.26,4.98c-1.02,0-2.02-.1-3-.25l.3-7.02,2.69-4.06,2.7,4.07.3,7.01c-.98.15-1.97.25-2.99.25Zm-15.4-7.15l4.27-2.12-2.13,4.28c-.76-.67-1.48-1.38-2.14-2.16Z" fill="#e3e5e5"/>
          <path d="m246.32,91.65c-14.98,0-27.25,11.55-28.42,26.23-.06-.76-.1-1.52-.1-2.29,0-15.75,12.77-28.52,28.52-28.52,15.75,0,28.52,12.77,28.52,28.52,0,.77-.04,1.53-.1,2.29-1.17-14.68-13.44-26.23-28.42-26.23Z" fill="#383838"/>
          <path d="m246.32,143.71c16.27,0,29.55-12.77,30.37-28.83.03.52.04,1.05.04,1.57,0,16.79-13.61,30.41-30.41,30.41s-30.41-13.61-30.41-30.41c0-.53.01-1.05.04-1.57.82,16.06,14.1,28.83,30.37,28.83Z" fill="#111"/>
          <path d="m246.32,94.52c-11.9,0-21.56,9.47-21.9,21.29,0-.22-.03-.43-.03-.65,0-12.12,9.82-21.94,21.94-21.94,12.12,0,21.94,9.82,21.94,21.94,0,.22-.03.43-.03.65-.35-11.81-10.01-21.29-21.9-21.29Z" fill="#111"/>
          <path d="m246.32,138.46c-11.9,0-21.56-9.47-21.9-21.29,0,.22-.03.43-.03.65,0,12.12,9.82,21.94,21.94,21.94,12.12,0,21.94-9.82,21.94-21.94,0-.22-.03-.43-.03-.65-.35,11.81-10.01,21.29-21.9,21.29Z" fill="#383838"/>
        </g>
        <g>
          <circle cx="58.82" cy="116.45" r="30.41" fill="#242424"/>
          <path d="m36.89,116.45c0,12.12,9.82,21.94,21.94,21.94,12.12,0,21.94-9.82,21.94-21.94,0-12.12-9.82-21.94-21.94-21.94-12.12,0-21.94,9.82-21.94,21.94Zm2.01-3.2l6.81.29,4.06,2.69-4.07,2.7-6.86.29c-.13-.91-.21-1.83-.21-2.78s.11-2.16.28-3.2Zm15.73,7.19c-.14.28-.25.58-.32.89-.21.33-.48.62-.84.84l-1.6,1.02,1.01-1.59c.23-.36.53-.64.87-.85.31-.07.6-.17.88-.31Zm-.87-8.71c-.33-.21-.62-.48-.84-.84l-1.02-1.6,1.59,1.01c.36.23.64.53.85.87.07.31.17.6.31.88-.28-.14-.58-.25-.89-.32Zm-2.53,6.97l-1.89.08,1.67-.87c.38-.2.78-.29,1.18-.3.3.09.6.15.91.17-.26.18-.51.38-.72.61-.34.18-.73.29-1.15.31Zm-1.89-5.01l1.89.08c.43.02.82.14,1.17.33.21.23.45.43.71.6-.32.02-.63.08-.94.17-.39-.02-.78-.11-1.15-.3l-1.68-.88Zm-3.23-1.69l-6.01-3.14c.76-1.87,1.78-3.6,3.03-5.14l5.68,3.61,2.17,4.37-4.88.3Zm.24-11.43c1.56-1.23,3.3-2.22,5.18-2.95l3.08,5.9-.3,4.87-4.38-2.18-3.58-5.64Zm5.96-3.24c.88-.3,1.79-.55,2.73-.72l-.27,4.42-2.45-3.7Zm2.72,38.94c-1.02-.19-2-.47-2.96-.81l2.66-4.01.3,4.82Zm-3.7-1.08c-1.88-.75-3.62-1.77-5.17-3.02l3.76-5.91,4.37-2.17.3,4.88-3.25,6.23Zm-2.54-10.06l-5.88,3.73c-1.23-1.57-2.22-3.32-2.95-5.21l6.13-3.2,4.87.3-2.18,4.38Zm-9.1-2.23c-.32-.93-.56-1.9-.74-2.89l4.66.29-3.92,2.6Zm-.67-10.47c.19-.96.48-1.9.8-2.81l3.8,2.52-4.6.29Zm6.69-11.35l1.99,4.01-4.02-2c.63-.71,1.3-1.39,2.03-2.01Zm13.11-4.85c1.02,0,2.02.1,3.01.25l-.28,6.63-2.69,4.06-2.7-4.07-.28-6.63c.97-.14,1.95-.24,2.95-.24Zm-1.37,26.66c-.02.39-.11.78-.3,1.15l-.88,1.68.08-1.88c.02-.43.14-.82.33-1.17.23-.21.43-.45.6-.71.02.32.08.63.17.94Zm-.14-12.39c-.18-.26-.38-.51-.61-.73-.18-.34-.29-.73-.31-1.15l-.08-1.89.87,1.67c.2.38.29.78.3,1.18-.09.3-.15.6-.17.91Zm4.05,15.23l-.87-1.67c-.2-.38-.29-.78-.3-1.18.09-.3.15-.6.17-.91.18.26.38.51.61.72.18.34.29.73.31,1.15l.08,1.89Zm-.05-17.1c-.02.43-.14.82-.33,1.17-.23.21-.43.45-.6.71-.02-.32-.08-.63-.17-.94.02-.39.11-.78.3-1.15l.88-1.68-.08,1.89Zm17.49,10.61l-6.84-.29-4.06-2.69,4.07-2.7,6.78-.29c.16,1.03.27,2.09.27,3.17s-.09,1.89-.22,2.81Zm-10.48-.44l-1.89-.08c-.43-.02-.82-.14-1.17-.33-.21-.23-.45-.43-.71-.6.32-.02.63-.08.94-.17.39.02.78.11,1.15.3l1.68.88Zm-2.84-3.91c-.3-.09-.6-.15-.91-.17.26-.18.51-.38.72-.61.34-.18.73-.29,1.15-.31l1.89-.08-1.67.87c-.38.2-.78.29-1.18.3Zm.29,8.31l-1.59-1.01c-.36-.23-.64-.53-.85-.87-.07-.31-.17-.6-.31-.88.28.14.58.25.89.32.33.21.62.48.84.84l1.02,1.6Zm-2.73-11.14c.14-.28.25-.58.32-.89.21-.33.48-.62.84-.84l1.6-1.02-1.01,1.59c-.23.36-.53.64-.87.85-.31.07-.6.18-.88.31Zm.04-8.54l3.08-5.89c1.88.73,3.62,1.73,5.17,2.96l-3.58,5.64-4.37,2.17-.3-4.88Zm5.79,3.83l5.66-3.6c1.25,1.54,2.27,3.28,3.02,5.15l-5.99,3.13-4.87-.3,2.18-4.38Zm8.97,2.32c.32.91.6,1.83.79,2.79l-4.58-.28,3.79-2.51Zm.85,10.37c-.18.99-.43,1.94-.74,2.87l-3.9-2.59,4.64-.29Zm-1.02,3.63c-.73,1.89-1.72,3.64-2.95,5.2l-5.87-3.73-2.17-4.37,4.88-.3,6.11,3.19Zm-6.19,8.5c-1.55,1.25-3.29,2.27-5.17,3.02l-3.25-6.23.3-4.87,4.38,2.18,3.75,5.9Zm-5.92,3.29c-.96.34-1.94.62-2.96.81l.3-4.82,2.66,4.01Zm-2.9-38.85c.93.18,1.84.43,2.72.73l-2.45,3.69-.27-4.42Zm11.34,6.51l-4.01,1.99,1.99-4c.72.62,1.39,1.29,2.02,2Zm-1.91,28.53l-2.12-4.27,4.26,2.12c-.65.77-1.37,1.49-2.13,2.15Zm-13.26,4.98c-1.02,0-2.02-.1-3-.25l.3-7.02,2.69-4.06,2.7,4.07.3,7.01c-.98.15-1.97.25-2.99.25Zm-15.4-7.15l4.27-2.12-2.13,4.28c-.76-.67-1.48-1.38-2.14-2.16Z" fill="#e3e5e5"/>
          <path d="m58.82,91.65c-14.98,0-27.25,11.55-28.42,26.23-.06-.76-.1-1.52-.1-2.29,0-15.75,12.77-28.52,28.52-28.52,15.75,0,28.52,12.77,28.52,28.52,0,.77-.04,1.53-.1,2.29-1.17-14.68-13.44-26.23-28.42-26.23Z" fill="#383838"/>
          <path d="m58.82,143.71c16.27,0,29.55-12.77,30.37-28.83.03.52.04,1.05.04,1.57,0,16.79-13.61,30.41-30.41,30.41-16.79,0-30.41-13.61-30.41-30.41,0-.53.01-1.05.04-1.57.82,16.06,14.1,28.83,30.37,28.83Z" fill="#111"/>
          <path d="m58.82,94.52c-11.9,0-21.56,9.47-21.9,21.29,0-.22-.03-.43-.03-.65,0-12.12,9.82-21.94,21.94-21.94,12.12,0,21.94,9.82,21.94,21.94,0,.22-.03.43-.03.65-.35-11.81-10.01-21.29-21.9-21.29Z" fill="#111"/>
          <path d="m58.82,138.46c-11.9,0-21.56-9.47-21.9-21.29,0,.22-.03.43-.03.65,0,12.12,9.82,21.94,21.94,21.94,12.12,0,21.94-9.82,21.94-21.94,0-.22-.03-.43-.03-.65-.35,11.81-10.01,21.29-21.9,21.29Z" fill="#383838"/>
        </g>
        <g>
          <path d="m93.41,113.2c0,1.32,1.07,2.39,2.39,2.39h112.94c1.32,0,2.39-1.07,2.39-2.39h0c0-1.32-1.07-2.39-2.39-2.39h-112.94c-1.32,0-2.39,1.07-2.39,2.39h0Z" fill="#b2b2b2"/>
          <path d="m93.48,112.66c.25-1.06,1.19-1.85,2.32-1.85h112.94c1.13,0,2.08.79,2.32,1.85h-117.59Z" fill="#fff"/>
          <path d="m210.7,114.55c-.43.62-1.14,1.03-1.96,1.03h-112.94c-.81,0-1.53-.41-1.96-1.03h116.86Z" fill="#939393"/>
        </g>
        <path d="m210.87,57.2v1.83s0,1.63,0,1.63c0,.49.39.88.88.88h14.22c.49,0,.88-.39.88-.88v-1.63s0-1.78,0-1.78v-.04h0c-.02-.47-.4-.84-.87-.84h-14.22c-.47,0-.84.37-.87.83,0,0,0,0-.01,0Zm15.63.05v1.78c0,.29-.24.53-.53.53h-14.22c-.29,0-.53-.24-.53-.53v-1.78c0-.29.24-.53.53-.53h14.22c.29,0,.53.24.53.53Zm-15.27,3.41v-.94c.15.11.33.19.53.19h14.22c.2,0,.38-.08.53-.19v.94c0,.29-.24.53-.53.53h-14.22c-.29,0-.53-.24-.53-.53Z" fill="#bfbfbf"/>
        <path d="m145.75,57.2v1.83s0,1.63,0,1.63c0,.49.4.88.88.88h14.22c.49,0,.88-.39.88-.88v-1.63s0-1.78,0-1.78v-.04s0,0,0,0c-.02-.47-.4-.84-.87-.84h-14.22c-.47,0-.84.37-.87.83,0,0,0,0-.01,0Zm15.63.05v1.78c0,.29-.24.53-.53.53h-14.22c-.29,0-.53-.24-.53-.53v-1.78c0-.29.24-.53.53-.53h14.22c.29,0,.53.24.53.53Zm-15.27,3.41v-.94c.15.11.33.19.53.19h14.22c.2,0,.38-.08.53-.19v.94c0,.29-.24.53-.53.53h-14.22c-.29,0-.53-.24-.53-.53Z" fill="#bfbfbf"/>
        <path d="m25.65,89.09s-16.94,0-21.29,0c-4.34,0-2.58,9.59-2.58,9.59l19.52-.47,4.34-9.12Z" fill="#fff" opacity=".7"/>
        <path d="m300.51,102.23v-11.95h11.39c.8,1.41.37,7.3-.12,11.95h-11.27Z" fill="#7f374d"/>
        <path d="m300.51,93.11v-6.3h11.39c.49.86.51,3.4.35,6.3h-11.74Z" fill="#70221e"/>
        <path d="m18.7,64.44v-.98c0-1.44,1.17-2.61,2.61-2.61h9.56c1.44,0,2.61,1.17,2.61,2.61v.98h-14.77Z" fill="#e37333"/>
        <g>
          <path d="m90.73,48.42c.47,6.79,5.55,5.04,7.99,4.94,2.44-.1,3.12-2.32,2.82-5.22-.42-4.09-1.93-5.38-4.37-5.27-2.44.1-6.84-.27-6.44,5.55Z" fill="#200000"/>
          <path d="m101.04,45.85c-.5,1.27-1.56,2.15-2.9,2.21-1.52.06-8.26,1.61-5.82-3.55,1.18-1.4,3.38-1.2,4.79-1.26,1.58-.07,3.11,1.01,3.93,2.61Z" fill="#2d2d2d"/>
        </g>
      </g>
      <polygon points="66.33 65.36 6.53 67.17 5.35 75.96 66.33 65.36" fill="#fff" opacity=".7"/>
    </g>
  </g>
  <path d="m150.93,11.8c2.8-.07,5.88-.13,9.29-.2v9.49c-3.1-3.1-6.19-6.19-9.29-9.29Zm-28.32,1.52c-1.88,2.59-4.27,5.78-6.9,9.27l25.98,25.98,18.53.03v-9.8s-26.41-26.41-26.41-26.41c-6.9.34-9.57.68-11.2.94Zm-14.55,19.32c-1.97,2.57-3.94,5.13-5.84,7.59l8.29,8.29,13.45.02-15.9-15.9Zm160.7-21.44c-1.91,0-3.91,0-6.01-.01l34.32,34.32c-1.15-2.98-2.44-6.33-3.78-9.78l-24.53-24.53Zm-46.41-.06c1.15,3.46,2.3,6.95,3.43,10.46l26.96,26.96,29.64-.05-37.36-37.36c-7.56,0-15.36-.01-22.68-.02Zm-53.48.33v18.27c6.29,6.28,12.57,12.57,18.86,18.86h37.39c-1.48-4.92-2.95-9.67-4.42-14.37l-23.04-23.04c-10.89.05-19.34.15-28.79.29Z" fill="#2d2d2b" stroke="#2d2d2b" stroke-miterlimit="10"/>
</svg>
