<?xml version="1.0" encoding="UTF-8"?>
<svg id="_Слой_1" data-name="Слой 1" xmlns="http://www.w3.org/2000/svg" viewBox="0 0 337 134.9">
  <g>
    <path d="m15.51,105.12l4.28,3.88s1.67-1.63,4.92-1.94c3.26-.31,48.45,3.51,48.45,3.51,0,0,6.01-1.01,8.39-1.57,2.38-.56,154.66-1.87,154.66-1.87l1.77,2.35s3.3-2.23,7.99-2.79c4.7-.56,47.52-2.94,47.52-2.94,0,0,2.46,2.07,4.11,1.44,1.65-.63,7.41-5.64,7.41-5.64l-6.01-29.74-38.5-5.7-48.17-2.25-141.67,4.63-53.18,3-4.11,22.35,2.13,13.27Z"/>
    <path d="m45.57,47.21s-.93-3.39-.58-3.61c.35-.22,8.76-3.23,9.75-3.81.99-.58,37.25-35.1,43.92-34.47,6.67.64-6.03,22.11-6.03,22.11l-39.11,23.5-7.95-3.71Z" fill="#2d2d2b"/>
    <path d="m331.28,87.64s5.35.95,5.42,3.52c.07,2.57,3.23,12.24-12.97,11.51-16.2-.73-1.32-16.34,7.55-15.02Z" fill="#2e2e2e"/>
    <path d="m13.01,59.11l-2.79,1.52s-3.48,7.88-3.36,11.07c.12,3.19-.03,12.34.48,13.22.51.88,5.67.76,5.67.76l4.47-.7s-.93-24.2-4.47-25.88Z" fill="#2d2d2b"/>
    <path d="m326.23,40.64c.59-1.91-5.26-21.3-5.26-21.3h4.9c-1.72-5.4-3.84-10.03-6.47-12.98,0,0-.81-6.89-17.66-5.4l-50.43-.95-116.15,1.27S100.84.11,94.27,7.42l-40.06,37.62s-7.86,1.15-9.23-1.44l-33.27,14.49s-1.24.27-1.49,2.53c0,0,3.65.51,3.91,4.16.25,3.64.76,19.61-.25,19.99-1.01.38-6.28,0-6.66-1,0,0-.31.79.26,1.32.57.53,2.56,1.07,3.68,1.12s13.32.39,13.32.39c0,0,9.74-12.89,26.75-10.24,17.01,2.65,22.47,11.92,25.01,20.56,2.54,8.64,2.44,12.24,5.99,12.56,3.55.32,155.74,0,155.74,0,0,0,2.07-3.02,1.59-4.77-.48-1.75.16-33.7,30.21-31.64,30.05,2.07,27.82,32.11,27.82,32.11l29.17-2.38s1.67-1.75,1.67-4.45v-8.58s4.45,1.11,4.45-2.86v-21.3s-.46-11.68-2.41-24.96h-4.25Z" fill="#e5e5e3"/>
    <path d="m81.86,26.18s12.48-12.65,15.32-14.12c2.84-1.47,7.14-4.73,14.18-4.62,7.05.11,13.45-.73,13.45-.73h7.61s2.07-.29,2.6,1.71c.53,2,0,32.1,0,32.1,0,0,.11,1.9-1.05,2.22-1.16.32-50.6,1.06-50.6,1.06l-1.51-17.61Z" fill="#2d2d2b"/>
    <path d="m8.78,83.04s-8.78,1.67-8.78,4.74v15.66s1.14,5.31,7.06,5.56c5.92.25,12.72,0,12.72,0,0,0-3.66-18.88,4.65-22.4,1.58-.67-15.65-3.55-15.65-3.55Z" fill="#393b3a"/>
    <path d="m326.23,40.64h4.25c-1.05-7.16-2.53-14.79-4.61-21.3h-4.9s5.84,19.39,5.26,21.3Z" fill="#ba1f25"/>
    <g>
      <path d="m74.35,109c0,14.3-11.59,25.9-25.9,25.9s-25.9-11.59-25.9-25.9,11.59-25.9,25.9-25.9,25.9,11.59,25.9,25.9Z" fill="#27262c"/>
      <path d="m28.94,109c0,10.8,8.76,19.56,19.57,19.56s19.56-8.76,19.56-19.56-8.76-19.56-19.56-19.56-19.57,8.76-19.57,19.56Z" fill="#c3bfbe"/>
      <g>
        <path d="m41.72,95.88l4.53,5.15s.78,1.23,1.85,1.23,1.85-.86,1.85-.86l4.73-5.52s.66-.78,0-1.32c-.66-.54-2.97-1.32-6.18-1.32s-7.94.86-6.79,2.63Z" fill="#27262c"/>
        <path d="m41.72,122.12l4.53-5.15s.78-1.23,1.85-1.23,1.85.86,1.85.86l4.73,5.52s.66.78,0,1.32c-.66.54-2.97,1.32-6.18,1.32s-7.94-.86-6.79-2.63Z" fill="#27262c"/>
        <path d="m61.79,102.46l-5.14,4.53s-1.24.78-1.24,1.85.86,1.85.86,1.85l5.51,4.73s.78.66,1.32,0c.54-.66,1.32-2.97,1.32-6.18s-.87-7.94-2.64-6.79Z" fill="#27262c"/>
        <path d="m35.55,102.46l5.14,4.53s1.23.78,1.23,1.85-.86,1.85-.86,1.85l-5.51,4.73s-.78.66-1.32,0c-.53-.66-1.32-2.97-1.32-6.18s.86-7.94,2.64-6.79Z" fill="#27262c"/>
      </g>
    </g>
    <g>
      <path d="m295,107.41c0,14.3-11.6,25.9-25.9,25.9s-25.9-11.59-25.9-25.9,11.59-25.9,25.9-25.9,25.9,11.59,25.9,25.9Z" fill="#27262c"/>
      <path d="m249.6,107.41c0,10.8,8.76,19.56,19.56,19.56s19.56-8.76,19.56-19.56-8.76-19.56-19.56-19.56-19.56,8.76-19.56,19.56Z" fill="#c3bfbe"/>
      <g>
        <path d="m262.38,94.29l4.53,5.15s.78,1.23,1.85,1.23,1.85-.86,1.85-.86l4.73-5.52s.66-.78,0-1.32c-.66-.54-2.97-1.32-6.18-1.32s-7.94.86-6.79,2.63Z" fill="#27262c"/>
        <path d="m262.38,120.53l4.53-5.15s.78-1.23,1.85-1.23,1.85.86,1.85.86l4.73,5.52s.66.78,0,1.32c-.66.54-2.97,1.32-6.18,1.32s-7.94-.86-6.79-2.63Z" fill="#27262c"/>
        <path d="m282.44,100.87l-5.14,4.53s-1.24.78-1.24,1.85.86,1.85.86,1.85l5.52,4.73s.78.66,1.32,0c.54-.66,1.32-2.97,1.32-6.18s-.87-7.94-2.63-6.79Z" fill="#27262c"/>
        <path d="m256.21,100.87l5.15,4.53s1.23.78,1.23,1.85-.86,1.85-.86,1.85l-5.51,4.73s-.78.66-1.32,0c-.53-.66-1.32-2.97-1.32-6.18s.86-7.94,2.64-6.79Z" fill="#27262c"/>
      </g>
    </g>
    <path d="m143.32,106.62h-58.37c-2.25,0-2.76-1.01-2.81-1.13l-.02-.08c-.26-1.53-1.35-4.43-2.73-8.11-2.5-6.64-5.92-15.74-6.95-23.56-1.57-11.99.7-46.4.72-46.75l.63.04c-.02.35-2.29,34.7-.73,46.63,1.01,7.75,4.42,16.81,6.91,23.42,1.38,3.66,2.47,6.57,2.76,8.17.08.12.58.73,2.22.73h58.19c.25-.18,1.14-.87,1.14-1.96,0-1.45-1.04-101.73-1.05-102.75h.64c.01,1.01,1.05,101.29,1.05,102.75,0,1.63-1.45,2.52-1.51,2.55l-.08.04Z" fill="#ccc"/>
    <rect x="79.96" y="25.22" width="8.27" height="20.03" rx="4.07" ry="4.07" fill="#d8d8d6"/>
    <path d="m142.02,58.84c0,1.81-1.41,3.13-3.22,3.13h-.18c-1.81,0-3.33-1.32-3.33-3.13v-8.32c0-1.81,1.52-3.42,3.33-3.42h.18c1.81,0,3.22,1.61,3.22,3.42v8.32Z" fill="#d8d8d6"/>
    <rect x="138.38" y="48.51" width="2.24" height="10.66" rx="1.07" ry="1.07" fill="#fff"/>
    <path d="m315.35,48.75h-156.96c-3.27,0-6.25-2.98-6.25-6.25v-25.65c0-3.1,2.81-5.62,6.25-5.62h149.01c3.26,0,4.64,2.11,5.92,5.75l7.97,25.62v.05c0,3.3-2.72,6.09-5.94,6.09ZM158.39,11.87c-3.1,0-5.62,2.23-5.62,4.98v25.65c0,2.94,2.68,5.62,5.62,5.62h156.96c2.86,0,5.27-2.47,5.3-5.41l-7.93-25.52c-1.21-3.44-2.41-5.31-5.31-5.31h-149.01Z" fill="#ccc"/>
  </g>
  <rect x="81.37" y="23.82" width="8.27" height="20.03" rx="4.07" ry="4.07" fill="#e5e5e3"/>
</svg>