<svg version="1.1" id="Слой_1" xmlns="http://www.w3.org/2000/svg"
	 viewBox="0 0 100 100" >
<g id="Слой_x0020_1">
	<path d="M59.33,69.93c-1.37-5,5.3-6.3,6.48-2.48C67.48,72.84,60.33,73.56,59.33,69.93z M37.61,69.16c-0.41-4.58,6.52-5.24,6.8-0.77
		C44.73,73.52,37.97,73.15,37.61,69.16z M40.41,56.14c-0.85-4.01,0.42-6.54,2.23-9.16c6.21-9.01,20.06-3.83,20.83,4.85
		c0.61,6.88-2.5,12.05-9.62,13.48C47.58,66.56,41.64,61.94,40.41,56.14z M31.15,49.51c-0.49-1.99,0.08-4.11,2.02-4.42
		c2.15-0.35,4.23,0.01,4.58,2.16C38.65,52.88,31.92,52.62,31.15,49.51z M72.57,49.76c-1.41,3.44-8.11,2.1-6.32-2.91
		c0.7-1.96,2.58-2.21,4.66-1.7C72.65,45.58,73.39,47.76,72.57,49.76z M55.21,35.98c-0.32,2.28-1.51,2.83-4.15,2.49
		c-2.17-0.28-2.5-1.99-2.3-4.28C49.05,30.95,55.98,30.54,55.21,35.98z M48.56,28.74c-9.79,1.05-17.67,8.77-20.58,17.12
		c-1.15,3.3-1.42,8.02-1,11.82c1.64,14.82,19.95,28.24,37.9,17.92c4.8-2.76,9.38-8.57,11.15-13.89c2.79-8.36,0.51-17.94-4.92-24.38
		c-0.56-0.66-0.88-0.75-1.55-1.51C65.19,30.86,56.73,27.87,48.56,28.74z M12.51,32.05c5.81-1.72,5.97,5.66,2.95,6.34
		C9.19,39.8,9.6,32.91,12.51,32.05z M45.16,8.07c1.43-0.76,4.45-0.19,5.01,1.22c0.78,1.97,0.01,4.47-1.44,4.96
		C43.29,16.06,42.21,9.65,45.16,8.07z M6.31,28.58c-0.9,1.75-1.74,3.77-2.6,5.78c-1.23,2.88-1.98,2.99-1.49,6.61
		c4.22,0.93,14.97,5.51,16.95,4.75c1.67-0.65,1.92-2.89,2.82-4.58c3.18-6.01,2.01-4.04,5.9-8.9c3.98-4.97,12.23-9.24,18.78-10.81
		c7.23-1.74,9.22,1.38,9.2-5.6c-0.01-2.67,0.58-12.73-0.53-14.26C54.02-0.25,44.63,1.43,42.36,2c-0.91-1.01-0.4-1.8-2.07-1.98
		C37.45-0.29,27.67,4.7,24.9,6.26c-6.52,3.68-13.67,10.32-18.11,16.6C6.4,23.41,5.3,24.94,5.13,25.6
		C4.64,27.47,5.78,27.35,6.31,28.58z M37.02,88.85l0.34-1.56c-2.58-1.81-3.83-1.46-8.74-5.68c-6.69-5.76-7.49-9.98-9.95-11.48
		c-4.67-2.84-4.21-2.15-8.08-6.21c-0.73-0.76-1.04-1.41-1.66-1.94c-0.9-0.79-1.89-0.58-1.95,0.79c-0.25,5.24,6.68,17.1,8.95,19.8
		c2.75,3.28,4.2,4.94,8.24,6.06C27.97,89.68,33.29,90.02,37.02,88.85z M65.28,88.61c-1.34-0.7-3.45,0.45-5.05,0.7
		c-5.71,0.89-11.94,1.61-17.58-0.27c-2.16-0.72-5.13,1.35-10.74,1.61c-1.43,0.07-5.31-0.67-5.19,1.21
		c0.13,1.93,10.83,5.96,13.04,6.47c3.91,0.89,6.95,1.55,11.26,1.66c4.81,0.12,6.07-1.86,8.77-3.93
		C61.05,95.09,65.75,91.05,65.28,88.61z M69.58,20.26c-0.17,1.98-0.38,1.7,1.07,2.49c2.09,1.13,4.31,3.06,5.98,4.47
		c5.52,4.64,7.42,10.62,8.63,12.04c0.51,0.6,3.35,2,4.25,2.64c2.97,2.1,3.29,2.96,5.16,5.04c0.64,0.71,0.92,1.44,2.26,1.28
		c1.75-4.01-4.28-16.26-6.06-18.92l-4-5.45c-1.42-1.83-8.79-3.67-12.37-3.67C74.52,20.18,69.58,20.26,69.58,20.26z M60.7,98.83
		c6.81,0.06,18.66-7.28,23.06-11.49c3.49-3.34,3.58-13.98,2.4-17.07c-3.45-0.52-3.53,5.84-9.78,10.71
		c-1.33,1.04-2.31,1.97-3.88,3.02c-1.18,0.79-3.53,1.81-4.25,2.64c-1.09,1.27-2.71,5.73-5.58,8.2C59.56,97.53,60.24,97.2,60.7,98.83
		z M87.25,42.81c-0.76,0.53-0.35,1.13-0.08,2.18c0.24,0.93,0.28,1.8,0.5,2.59c0.91,3.26,1,8.52,0.29,11.79L86.6,64.4
		c-0.63,2.55,0.37,3.54,0.7,5.48c0.34,2.04,0.65,3.78,0.6,5.91c-0.03,1.48-0.71,5.18,1.56,4.45c0.53-0.17,4.68-7.51,4.75-7.71
		c0.41-1.1-0.16-0.39,0.84-2.24c1.62-2.99,2.67-9.71,2.87-13.13C98.21,51.86,89.59,41.18,87.25,42.81z M57.57,8.29
		c-0.16,2.46-0.53,6.2-0.41,8.57c0.1,1.93,0.24,0.73,6.15,2.74c3.62,1.23,3.93-0.1,7.3-0.52c3.65-0.45,4.67-0.16,8.12,0.21
		c3.82,0.4,0.57-2.47-1.57-3.84C73.1,12.87,62.01,7.82,57.57,8.29z M6.8,44.4c-0.41,1.7-0.78,5.82-0.9,7.72
		c-0.16,2.49,1.24,4.76,2.3,6.53c2.55,4.26,2.38,3.68,4.86,6.12c0.41,0.41,2.76,3.38,4.09,2.44c0.87-0.61,0.04-2.31-0.44-4.29
		c-2.07-8.5-0.31-13.99-0.6-15.97c-0.67-0.3-7.78-2.83-8.69-2.72C6.55,44.33,7.18,44.22,6.8,44.4z"/>
</g>
</svg>
