<svg
		version="1.1"
		id="Слой_1"


		viewBox="0 0 100 100"
	>
		<g id="Слой_x0020_1">
			<path
				fill="current"
				d="M24.23,26.75l16.57,0.02l-0.01,12.81c-3.09,0.54-6.77,1.7-9.66,2.64c-3.28,1.07-7.06,1.6-7.82,4.72
		c-0.86,3.53,1.51,6.51,4.52,7.65c2.33,0.89,8.03,1.75,10.66,1.87l0-2.34c-1.23-0.16-6.33-0.25-7.12-1.09l9.11-2.42l0.05,7.39
		c-6.75,3.29-15.3,2.96-16.17,7.49c-0.36,1.85-0.15,3.61,0.75,4.79c2.58,3.36,9.34,3.82,13.41,4.63l-0.06-2.5l-5.82-0.82
		c1.35-0.65,6.51-2.25,8.03-2.28l0.12,8.27c-0.92,0.38-3.32,0.83-4.48,1.17c-1.48,0.43-3,0.86-4.51,1.34
		c-3.3,1.04-6.41,1.5-7.18,4.54c-0.46,1.84-0.09,3.49,0.86,4.64c0.8,0.97,1.95,2.16,3.13,2.75c1.64,0.83,7.72,1.73,9.83,1.81l0.04-2
		l-5.57-1.18l7.88-2.41c-0.07,10.58-0.45,11.88,9.65,11.73c3.19-0.05,5.31-2.09,5.37-5.32c0.07-3.46,0.09-7.35-0.03-10.79
		c2.72-0.25,7.76-1.9,10.4-2.75c3.27-1.05,7.54-1.91,8.12-5.13c0.84-4.73-1.07-7.23-4.83-8.27c-2.6-0.72-8.72-1.91-11.39-2.03
		c-0.03,0.07-0.06,0.1-0.07,0.23s-0.05,0.17-0.06,0.23l-0.05,1.68l9.82,1.8l-11.93,3.48l0.04-8.17c1.62-1.34,7.41-2.24,9.98-3.03
		c4.81-1.49,6.63-0.21,8.44-4.84c1.5-3.84-1.82-6.52-4.88-7.59c-2.17-0.76-8.83-1.9-11.26-1.92l-0.01,2
		c1.58,0.34,6.74,0.59,7.63,1.29c-0.59,0.42-1.51,0.59-2.27,0.79c-0.91,0.25-1.73,0.46-2.62,0.68c-1.63,0.4-3.46,1.06-5.01,1.28
		l-0.01-7.36c2.93-2.4,15.3-2.68,17.31-7.63c1.46-3.59-1.89-7.3-3.64-8.36c-2.71-1.65-7.95-1.75-11.38-1.4
		c0.99,1.3,7.5,2.12,9.08,3.14l-11.39,2.96l0.02-8.15l16.43-0.01l0.12-10l-48.08,0L24.23,26.75L24.23,26.75z"
			/>
			<path
				fill="current"
				d="M33.41,5.02l-3,0.03l-4.13,9.59c3.09,0.37,38.97,0.14,45.32,0.12c-1.06-3.61-2.97-7.1-4.66-9.72L64.72,5
		c0.02-2.69,0.67-4.75-2.04-4.87c-4.58-0.19-4.31,0.39-4.3,4.89L39.5,4.99c0.03-4.36,0.41-5.35-4.35-4.85
		C32.94,0.37,33.41,2.82,33.41,5.02z"
			/>
			<path
				fill="current"
				d="M38.37,33.15l0.07-2.19c-0.83-0.28-1.85-0.41-2.83-0.73c-6.32-2.03-3.28-1.13-9.75-1.48l1.28,1.07
		C29.64,31.03,36,33.01,38.37,33.15L38.37,33.15z"
			/>
			<path
				fill="current"
				d="M58.15,96.11c5.08-0.82,5.08-8.39-0.3-9.63c0.04,1.15-0.21,2.13,0.39,2.67c0.68,0.62,1.36,0.13,1.44,1.93
		C59.8,93.92,57.93,92.02,58.15,96.11z"
			/>
		</g>
	</svg>
