<svg id="_Слой_1"  xmlns="http://www.w3.org/2000/svg" viewBox="0 0 100 100" fill="currentColor" >
<path d="m71.62,19.9V5.04c0-1.34-1.01-2.43-2.26-2.43h-1.71c-1.25,0-2.26,1.09-2.26,2.43v8.15c0,1.34-.72,1.66-1.6.71L51.51.71c-.88-.95-2.31-.95-3.19,0L.51,52.16c-.88.95-.58,1.73.67,1.73l12.15.08c1.25,0,2.26,1.1,2.26,2.44l-.11,35.16c0,1.34,1.01,2.43,2.26,2.43h20.44c1.25,0,2.26-1.09,2.26-2.43v-31.47c0-1.34.39-3.49,1.37-4.31,1.72-1.43,4.71-2.36,8.08-2.36s6.25.91,7.92,2.33c.98.83,1.35,2.99,1.35,4.33v31.48c0,1.34,1.01,2.43,2.26,2.43h20.42c1.25,0,2.27-1.09,2.27-2.43l.11-35.25c0-1.34,1.02-2.42,2.27-2.41l12.35.08c1.25,0,1.55-.75.67-1.7l-26.28-28.24c-.88-.95-1.6-2.8-1.6-4.14Zm6.37,29.7l-.12,35.29c0,1.34-1.02,2.43-2.27,2.43h-7.96c-1.25,0-2.26-1.09-2.26-2.43v-25.24c0-1.34-.02-2.59-.04-2.8-.02-.21-.24-1.45-.8-2.65-2.16-4.6-7.64-7.45-14.66-7.45-5.91,0-12.36,2.32-14.83,7.44-.57,1.19-.78,3.36-.78,4.7l-.07,26c0,1.34-1.02,2.43-2.27,2.43h-7.94c-1.25,0-2.26-1.09-2.26-2.43l.11-35.11c0-1.34-1.01-2.43-2.26-2.44l-3.49-.02c-1.25,0-1.55-.79-.67-1.73L48.31,10.19c.88-.95,2.31-.95,3.19,0l32.86,35.32c.88.95.58,1.71-.67,1.7l-3.44-.02c-1.25,0-2.27,1.07-2.27,2.41Z"/>
</svg>
