<svg version="1.1" id="Слой_1" xmlns="http://www.w3.org/2000/svg" viewBox="0 0 100 100" >
<g id="Слой_x0020_1">
	<path d="M44.46,15.86c5.15-0.8,12.72-0.15,17.51,1.41c5.1,1.65,9.18,4.22,12.62,7.01
		c17.19,13.96,19.44,38.18,5.94,54.88c-4.22,5.22-14.35,13.31-24.78,14.33c-5.78,0.56-12.63,0.3-17.78-1.52
		c-6.66-2.35-13.63-6.73-17.58-11.99c-4.65-6.2-8.18-11.23-9.25-19.79C8.43,38.63,23.14,19.16,44.46,15.86L44.46,15.86z
		 M88.35,87.75c-0.16-1.51,2.5-4.66,3.26-5.71c10.1-13.89,10.38-35.33,3.01-49.94C90.7,24.31,83.92,17.27,77.65,13
		c-3.43-2.34-7.7-4.5-12.24-5.91c-6.24-1.93-8.72-2.19-15.66-2.19c-17.46-0.01-26.71,6.56-37.43,16.98
		c-1.09,1.06-2.78,3.58-3.81,5.14C1.77,37.26-1.26,49.83,1.02,63.03c1.68,9.72,4.7,14.59,9.74,21.84c0.66,0.95,1.59,1.68,1.34,2.96
		c-1.69,0.59-5.62-0.03-7.89,0.47c-2.05,0.45-4.07,2.24-2.88,4.75c1.13,2.38,3.45,2.01,6.41,2.01h83.01c2.71,0,5.48,0.42,6.8-1.37
		c0.6-0.82,0.93-2.14,0.47-3.39C96.98,87.45,91.71,88.38,88.35,87.75L88.35,87.75z M47.93,22.12c5.57-0.32,9.55-0.1,14.19,1.94
		c6.25,2.75,8.2,4.89,12.14,8.49c1.33,1.22,4.16,5.33,5.11,7.05c2.13,3.86,3.43,7.59,3.44,12.74c0.03,10.57-0.87,15.95-8.43,24.14
		c-4.29,4.65-12.1,10.56-21.9,10.76c-5.43,0.11-9.67-0.4-14.35-2.18c-7.43-2.82-13.79-8.57-17.22-15.57
		c-4.03-8.25-4.77-18.4-1.26-26.87c1.6-3.86,3.61-7.64,6.1-10.04C32.04,26.56,38.72,22.64,47.93,22.12L47.93,22.12z M86.07,58.56
		c2.42-19.8-13.71-38.26-31.77-39.89c-11.08-1-21.37,2.84-27.42,8.33c-5.4,4.9-11.79,12.32-12.76,23.34
		C12.95,63.8,17.3,74.4,27.22,82.58c4.98,4.11,12.08,7.08,18.88,7.87C67.31,92.89,83.82,76.97,86.07,58.56L86.07,58.56z M30.2,68.31
		c-0.05,3.15,6.87,7.83,9.93,9.32c4.63,2.26,4.26,0.02,4.26-3.91c0-2.06,0.43-8.18-0.27-9.54C42.35,62.79,31.61,67.19,30.2,68.31z
		 M31.35,40.1c-3.46,0.88-6.37,11.57-5.99,14.48c0.24,1.87,1.53,1.73,3.01,1.24c2.4-0.79,10.09-2.92,11.16-3.71
		c0.17-1.59-0.78-2.63-1.5-3.72C36.56,46.18,33.2,41.28,31.35,40.1z M60.32,51.6c1.37,1.39,1.47,1.23,3.39,1.95
		c1.26,0.48,2.41,0.83,3.71,1.23c1.34,0.41,2.67,0.8,4.08,1.13c1.63,0.39,2.83,0.91,3.11-1.08c0.48-3.48-3.06-14.91-5.98-14.53
		C67.62,40.43,60.46,50.54,60.32,51.6L60.32,51.6z M56.67,78.18c3.13,0.48,8.33-3.42,9.85-4.81c5.56-5.1,4.49-5.49,0.16-6.87
		c-1.92-0.61-3.83-1.24-5.62-1.81c-2.98-0.96-4.37-1.99-4.87,0.04C55.59,67.26,55.96,76.09,56.67,78.18L56.67,78.18z M49.74,44.12
		c2.27-0.16,8.56-9.99,8.75-11.65c-2.06-2.58-14.79-2.62-16.48-0.24c-0.89,1.25,0.62,2.54,1.19,3.31
		C44.49,37.28,48.76,43.49,49.74,44.12L49.74,44.12z M56.49,56.82c0.96-3.97-1.29-7.17-4.46-7.99c-3.98-1.03-7.54,1.36-8.24,4.31
		c-0.9,3.78,1.54,7.94,4.5,8.39C52.55,62.19,55.66,60.2,56.49,56.82L56.49,56.82z M42.42,59.55c1.5-3.58-3.53-5.6-5.07-2.45
		C35.64,60.61,40.96,63.04,42.42,59.55z M47.47,66.76c0.96,2.86,6.3,2.02,5.36-1.86C52.03,61.59,46.14,62.79,47.47,66.76
		L47.47,66.76z M55.19,43.81c-3.37,1.38-1.42,6.36,2.08,5.14C60.61,47.78,58.78,42.33,55.19,43.81z M57.44,58.81
		c0.41,3.5,6.13,2.86,5.49-0.96C62.37,54.54,57,55,57.44,58.81z M41.14,47.13c0.75,3.04,6.23,2.48,5.4-1.45
		C45.82,42.3,40.2,43.35,41.14,47.13z"/>
</g>
</svg>
